<?xml version="1.0" encoding="iso-8859-1"?>
<!-- Uploaded to: SVG Repo, www.svgrepo.com, Generator: SVG Repo Mixer Tools -->
<svg version="1.1" id="Layer_1" xmlns="http://www.w3.org/2000/svg" xmlns:xlink="http://www.w3.org/1999/xlink" 
	 viewBox="0 0 512.005 512.005" xml:space="preserve">
<path style="fill:#EADAA9;" d="M322.008,303.648c0-11.64-9.437-21.077-21.078-21.077h-89.857c-11.64,0-21.077,9.437-21.077,21.077
	l0,0h82.924h19.968H322.008L322.008,303.648z"/>
<path style="fill:#D8C89A;" d="M236.958,282.57h-25.884c-11.64,0-21.077,9.437-21.077,21.077l0,0h25.884l0,0
	C215.881,292.006,225.318,282.57,236.958,282.57z"/>
<rect x="385.81" y="166.068" style="fill:#87E87C;" width="19.967" height="345.926"/>
<g>
	<rect x="385.81" y="166.068" style="fill:#72C965;" width="5.863" height="345.926"/>
	<path style="fill:#72C965;" d="M405.771,166.074v20.29c-0.998,0.433-1.586,0.632-1.586,0.632h-18.371v-20.922H405.771z"/>
</g>
<path style="fill:#E2B44D;" d="M384.921,78.752c0,0-15.76-73.18,28.613-78.428c19.73-2.333,30,8.29,35.323,20.811
	c0,0-23.12-10.529-35.569,5.248c-7.682,9.737-6.139,21.972-0.728,40.26l9.466,56.914l-12.931,39.555h-27.734l-11.093-43.264"/>
<path style="fill:#F4C653;" d="M387.396,180.335c0,0-32.163-10.913-25.507-47.521c4.437-24.406,12.203-53.248-14.421-73.217
	c-13.312-9.984-21.909-1.664-27.179,9.152c0,0-2.773-31.339,20.523-30.23c23.296,1.109,44.374,19.968,46.592,56.576
	c2.08,34.321-4.615,54.99,3.681,59.269c0.903,0.466,1.929,0.636,2.944,0.636h5.114c1.015,0,2.042-0.171,2.944-0.636
	c8.296-4.278,1.601-24.948,3.681-59.269c2.219-36.608,23.296-55.467,46.592-56.576c23.296-1.109,20.523,30.23,20.523,30.23
	c-5.269-10.816-13.867-19.136-27.179-9.152c-26.624,19.968-18.859,48.811-14.421,73.217c6.656,36.608-25.507,47.521-25.507,47.521"
	/>
<g>
	<path style="fill:#72C965;" d="M405.777,209.733h-19.968c-3.983,0-7.211-3.228-7.211-7.211s3.228-7.211,7.211-7.211h19.968
		c3.983,0,7.211,3.228,7.211,7.211S409.759,209.733,405.777,209.733z"/>
	<path style="fill:#72C965;" d="M405.777,271.302h-19.968c-3.983,0-7.211-3.228-7.211-7.211c0-3.983,3.228-7.211,7.211-7.211h19.968
		c3.983,0,7.211,3.228,7.211,7.211C412.987,268.073,409.759,271.302,405.777,271.302z"/>
	<path style="fill:#72C965;" d="M405.777,332.87h-19.968c-3.983,0-7.211-3.228-7.211-7.211c0-3.983,3.228-7.211,7.211-7.211h19.968
		c3.983,0,7.211,3.228,7.211,7.211C412.987,329.642,409.759,332.87,405.777,332.87z"/>
	<path style="fill:#72C965;" d="M405.777,394.439h-19.968c-3.983,0-7.211-3.228-7.211-7.211c0-3.983,3.228-7.211,7.211-7.211h19.968
		c3.983,0,7.211,3.228,7.211,7.211C412.987,391.21,409.759,394.439,405.777,394.439z"/>
	<path style="fill:#72C965;" d="M405.777,456.007h-19.968c-3.983,0-7.211-3.228-7.211-7.211s3.228-7.211,7.211-7.211h19.968
		c3.983,0,7.211,3.228,7.211,7.211S409.759,456.007,405.777,456.007z"/>
</g>
<path style="fill:#F75252;" d="M351.565,415.909c0,1.864-0.067,3.716-0.2,5.547c-0.621,8.73-2.707,17.095-6.035,24.916
	c-1.453,3.417-3.151,6.734-5.07,9.918c-3.506,5.868-7.765,11.326-12.658,16.274c-5.136,5.181-9.163,11.26-11.903,17.872
	c-1.921,4.61-3.216,9.482-3.821,14.487c-0.452,3.73-3.591,6.546-7.348,6.546h-97.059c-3.757,0-6.898-2.817-7.348-6.547
	c-1.471-12.172-7.008-23.549-15.714-32.357c-4.892-4.948-9.152-10.406-12.658-16.274c-1.919-3.195-3.616-6.512-5.07-9.929
	c-3.328-7.821-5.414-16.185-6.035-24.905c-0.133-1.83-0.2-3.683-0.2-5.547s0.067-3.716,0.211-5.547
	c0.588-8.342,2.518-16.363,5.613-23.895c1.398-3.439,3.051-6.767,4.925-9.984c3.93-6.778,8.85-13.017,14.579-18.569
	c6.807-6.597,10.503-15.77,10.503-25.25v-23.096h119.454v23.096c0,9.479,3.696,18.652,10.503,25.25
	c5.729,5.552,10.649,11.791,14.579,18.569c1.875,3.206,3.528,6.545,4.925,9.973c3.084,7.532,5.025,15.553,5.613,23.906
	C351.499,412.193,351.565,414.045,351.565,415.909z"/>
<path style="fill:#D84848;" d="M212.232,472.563c6.268,10.372,9.851,24.306,9.851,38.905h-14.611c-3.757,0-6.898-2.817-7.348-6.547
	c-1.471-12.172-7.008-23.549-15.714-32.357c-4.892-4.948-9.152-10.406-12.658-16.274c-1.919-3.195-3.616-6.512-5.07-9.929
	c-3.328-7.821-5.414-16.185-6.035-24.905c-0.133-1.83-0.2-3.683-0.2-5.547s0.067-3.716,0.211-5.547
	c0.588-8.342,2.518-16.363,5.613-23.895c1.398-3.439,3.051-6.767,4.925-9.984c3.93-6.778,8.85-13.017,14.579-18.569
	c6.807-6.597,10.503-15.77,10.503-25.25v-23.096h23.207v23.096c0,9.529-2.307,18.715-6.49,25.36
	c-3.472,5.525-6.456,11.726-8.841,18.459c-1.154,3.217-2.163,6.545-3.017,9.984c-1.886,7.532-3.073,15.553-3.428,23.895
	c-0.089,1.83-0.133,3.683-0.133,5.547s0.044,3.716,0.122,5.547c0.388,8.719,1.664,17.084,3.694,24.905
	c0.887,3.417,1.93,6.734,3.095,9.929C206.641,462.157,209.237,467.615,212.232,472.563z"/>
<g>
	<path style="fill:#C64040;" d="M351.565,415.909c0,1.864-0.067,3.716-0.2,5.547H160.648c-0.133-1.83-0.2-3.683-0.2-5.547
		c0-1.864,0.067-3.716,0.211-5.547h190.696C351.499,412.193,351.565,414.045,351.565,415.909z"/>
	<path style="fill:#C64040;" d="M345.741,386.456l-21.322,8.553c-1.32,0.533-2.796,0.533-4.127,0l-20.057-8.043l-20.057,8.043
		c-0.666,0.266-1.364,0.399-2.063,0.399c-0.699,0-1.398-0.133-2.063-0.399l-20.057-8.043l-20.057,8.043
		c-1.32,0.533-2.807,0.533-4.127,0l-20.057-8.043l-20.046,8.043c-1.331,0.533-2.807,0.533-4.138,0l-21.299-8.542
		c1.398-3.439,3.051-6.767,4.925-9.984l18.437,7.41l20.057-8.054c1.32-0.532,2.807-0.532,4.127,0l20.057,8.054l20.057-8.054
		c1.32-0.532,2.807-0.532,4.127,0l20.057,8.054l20.057-8.054c1.32-0.532,2.807-0.532,4.127,0l20.057,8.054l18.459-7.41
		C342.691,379.689,344.344,383.028,345.741,386.456z"/>
	<path style="fill:#C64040;" d="M345.331,446.371c-1.453,3.417-3.151,6.734-5.07,9.918l-17.894-7.189l-20.057,8.054
		c-1.32,0.533-2.796,0.533-4.127,0l-20.057-8.054l-20.046,8.054c-1.331,0.533-2.807,0.533-4.138,0l-20.057-8.054l-20.046,8.054
		c-1.331,0.533-2.807,0.533-4.138,0l-20.057-8.054l-17.894,7.189c-1.919-3.195-3.616-6.512-5.07-9.929l20.9-8.387
		c1.32-0.521,2.807-0.521,4.127,0l20.057,8.054l20.057-8.043c1.331-0.533,2.807-0.533,4.138,0l20.046,8.043l20.057-8.043
		c1.331-0.533,2.807-0.533,4.138,0l20.046,8.043l20.057-8.043c1.32-0.533,2.807-0.533,4.127,0L345.331,446.371z"/>
</g>
<g>
	<path style="fill:#E6E6E6;" d="M271.104,253.732c-0.714,0-1.439-0.154-2.128-0.478c-2.493-1.177-3.56-4.152-2.383-6.645
		c4.296-9.104,4.298-19.547,0-28.652c-5.573-11.811-5.573-25.36,0-37.172c1.177-2.494,4.151-3.561,6.645-2.384
		c2.494,1.177,3.561,4.151,2.384,6.645c-4.296,9.104-4.296,19.547,0,28.65c5.573,11.813,5.573,25.362-0.001,37.174
		C274.77,252.675,272.975,253.732,271.104,253.732z"/>
	<path style="fill:#E6E6E6;" d="M240.893,253.732c-0.714,0-1.439-0.153-2.127-0.478c-2.494-1.177-3.561-4.151-2.384-6.645
		c4.298-9.104,4.298-19.548,0-28.652c-5.573-11.811-5.573-25.36,0-37.172c1.177-2.494,4.151-3.561,6.645-2.384
		s3.561,4.151,2.384,6.645c-4.296,9.104-4.296,19.547,0,28.65c5.573,11.812,5.573,25.362,0,37.174
		C244.559,252.675,242.764,253.732,240.893,253.732z"/>
</g>
<rect x="106.233" y="166.08" style="fill:#87E87C;" width="19.957" height="345.926"/>
<g>
	<path style="fill:#72C965;" d="M106.229,209.733h19.968c3.983,0,7.211-3.228,7.211-7.211s-3.228-7.211-7.211-7.211h-19.968
		c-3.983,0-7.211,3.228-7.211,7.211S102.246,209.733,106.229,209.733z"/>
	<path style="fill:#72C965;" d="M106.229,271.302h19.968c3.983,0,7.211-3.228,7.211-7.211c0-3.983-3.228-7.211-7.211-7.211h-19.968
		c-3.983,0-7.211,3.228-7.211,7.211C99.018,268.073,102.246,271.302,106.229,271.302z"/>
	<path style="fill:#72C965;" d="M106.229,332.87h19.968c3.983,0,7.211-3.228,7.211-7.211c0-3.983-3.228-7.211-7.211-7.211h-19.968
		c-3.983,0-7.211,3.228-7.211,7.211C99.018,329.642,102.246,332.87,106.229,332.87z"/>
	<path style="fill:#72C965;" d="M106.229,394.439h19.968c3.983,0,7.211-3.228,7.211-7.211c0-3.983-3.228-7.211-7.211-7.211h-19.968
		c-3.983,0-7.211,3.228-7.211,7.211C99.018,391.21,102.246,394.439,106.229,394.439z"/>
	<path style="fill:#72C965;" d="M106.229,456.007h19.968c3.983,0,7.211-3.228,7.211-7.211s-3.228-7.211-7.211-7.211h-19.968
		c-3.983,0-7.211,3.228-7.211,7.211S102.246,456.007,106.229,456.007z"/>
	<rect x="106.233" y="166.068" style="fill:#72C965;" width="5.863" height="345.926"/>
</g>
<path style="fill:#E2B44D;" d="M127.085,78.752c0,0,15.76-73.18-28.613-78.428c-19.729-2.334-30,8.29-35.323,20.811
	c0,0,23.12-10.529,35.569,5.248c7.682,9.737,6.139,21.972,0.728,40.26l-9.466,56.914l12.93,39.555h27.734l11.093-43.264"/>
<path style="fill:#72C965;" d="M126.192,166.074v20.29c-0.998,0.433-1.586,0.632-1.586,0.632h-18.371v-20.922H126.192z"/>
<path style="fill:#F4C653;" d="M124.61,180.335c0,0,32.163-10.913,25.507-47.521c-4.437-24.406-12.203-53.248,14.421-73.217
	c13.312-9.984,21.91-1.664,27.179,9.152c0,0,2.773-31.339-20.523-30.23c-23.296,1.109-44.374,19.968-46.592,56.576
	c-2.08,34.321,4.615,54.99-3.681,59.269c-0.903,0.466-1.929,0.636-2.944,0.636h-5.114c-1.015,0-2.042-0.171-2.944-0.636
	c-8.296-4.278-1.601-24.948-3.681-59.269c-2.219-36.608-23.296-55.467-46.592-56.576c-23.296-1.109-20.523,30.23-20.523,30.23
	c5.269-10.816,13.867-19.136,27.179-9.152c26.624,19.968,18.859,48.811,14.421,73.217c-6.656,36.608,25.507,47.521,25.507,47.521"/>
<rect x="196.279" y="313.178" style="fill:#D84848;" width="119.454" height="11.903"/>
<path style="fill:#F75252;" d="M322.008,316.775H188.077c-3.983,0-7.211-3.228-7.211-7.211s3.228-7.211,7.211-7.211h133.931
	c3.983,0,7.211,3.228,7.211,7.211S325.991,316.775,322.008,316.775z"/>
<path style="fill:#D84848;" d="M235.484,309.564c0-3.983,3.228-7.211,7.211-7.211h-54.616c-3.983,0-7.211,3.228-7.211,7.211
	s3.228,7.211,7.211,7.211h54.616C238.712,316.775,235.484,313.547,235.484,309.564z"/>
<path style="fill:#EADAA9;" d="M272.92,297.342v50.679c0,5.515,4.47,9.984,9.984,9.984l0,0c5.515,0,9.984-4.47,9.984-9.984v-50.679
	H272.92z"/>
<path style="fill:#D8C89A;" d="M279.206,348.022v-47.535c0-1.736-1.408-3.143-3.143-3.143l0,0c-1.736,0-3.143,1.408-3.143,3.143
	v47.535c0,5.515,4.47,9.984,9.984,9.984l0,0c1.099,0,2.154-0.184,3.143-0.513C282.075,356.174,279.206,352.436,279.206,348.022z"/>
</svg>