<?xml version="1.0" encoding="iso-8859-1"?>
<!-- Uploaded to: SVG Repo, www.svgrepo.com, Generator: SVG Repo Mixer Tools -->
<svg version="1.1" id="Layer_1" xmlns="http://www.w3.org/2000/svg" xmlns:xlink="http://www.w3.org/1999/xlink" 
	 viewBox="0 0 512 512" xml:space="preserve">
<circle style="fill:#E6F3FF;" cx="256" cy="256" r="256"/>
<path style="fill:#CFDBE6;" d="M506.549,308.603L300.606,102.66l-0.927,6.039l-43.494-43.492l9.138,190.795l-151.545,142.22
	l111.994,111.994c75.186,8.888,153.559-15.507,211.249-73.195C473.55,400.487,496.716,355.661,506.549,308.603z"/>
<rect x="162.909" y="256" style="fill:#FD8469;" width="186.182" height="56.889"/>
<g>
	<rect x="255.431" y="256" style="fill:#FC6F58;" width="93.66" height="56.889"/>
	<rect x="142.222" y="299.96" style="fill:#FC6F58;" width="227.556" height="56.889"/>
</g>
<g>
	<rect x="255.431" y="299.96" style="fill:#F1543F;" width="114.347" height="56.889"/>
	<rect x="113.778" y="341.333" style="fill:#F1543F;" width="284.444" height="56.889"/>
</g>
<rect x="255.431" y="341.333" style="fill:#C1321F;" width="142.791" height="56.889"/>
<g>
	<rect x="142.222" y="355.556" style="fill:#FD8469;" width="28.444" height="28.444"/>
	<rect x="208.593" y="355.556" style="fill:#FD8469;" width="28.444" height="28.444"/>
	<rect x="274.963" y="355.556" style="fill:#FD8469;" width="28.444" height="28.444"/>
	<rect x="341.333" y="355.556" style="fill:#FD8469;" width="28.444" height="28.444"/>
</g>
<path style="fill:#F9B54C;" d="M180.891,175.766C179.867,220.574,211.365,256,256.184,256s74.924-35.414,74.924-80.234
	c0.974-27.874-30.505-73.106-30.505-73.106s-4.91,7.109-11.152,17.132c-14.433-27.314-33.27-54.587-33.27-54.587
	s-18.837,27.274-33.27,54.587c-6.242-10.023-11.152-17.132-11.152-17.132S181.52,148.277,180.891,175.766z"/>
<path style="fill:#F4A200;" d="M300.606,102.66c0,0-4.91,7.109-11.152,17.132c-14.433-27.314-33.27-54.587-33.27-54.587
	s-0.145,0.21-0.398,0.583v190.204c0.134,0,0.265,0.01,0.398,0.01c44.82,0,74.924-35.414,74.924-80.234
	C332.085,147.892,300.606,102.66,300.606,102.66z"/>
<path style="fill:#FFD15D;" d="M200.764,196.996C200.011,229.948,223.175,256,256.136,256s55.099-26.045,55.099-59.004
	c0.717-20.499-22.433-53.762-22.433-53.762s-3.61,5.229-8.201,12.598c-10.614-20.087-24.467-40.143-24.467-40.143
	s-13.853,20.058-24.467,40.143c-4.591-7.371-8.201-12.598-8.201-12.598S201.226,176.78,200.764,196.996z"/>
<path style="fill:#F9B54C;" d="M288.804,143.232c0,0-3.61,5.229-8.201,12.598c-10.614-20.087-24.467-40.143-24.467-40.143
	s-0.122,0.176-0.35,0.51v139.793c0.117,0,0.233,0.009,0.35,0.009c32.961,0,55.099-26.045,55.099-59.004
	C311.953,176.497,288.804,143.232,288.804,143.232z"/>
</svg>